<svg xmlns="http://www.w3.org/2000/svg" viewBox="0 0 60.23 75.03"><defs><style>.cls-1{fill:none;stroke:#231815;stroke-linecap:round;stroke-linejoin:round;stroke-width:1.5px;}.cls-2{fill:#231815;}</style></defs><g id="レイヤー_2" data-name="レイヤー 2"><g id="レイヤー_1-2" data-name="レイヤー 1"><rect class="cls-1" x="0.75" y="0.75" width="21.09" height="16" rx="2.75"/><line class="cls-1" x1="0.9" y1="6.13" x2="12.97" y2="6.13"/><line class="cls-1" x1="16.9" y1="6.13" x2="21.84" y2="6.13"/><rect class="cls-1" x="38.39" y="0.75" width="21.09" height="16" rx="2.75"/><line class="cls-1" x1="38.53" y1="6.13" x2="50.6" y2="6.13"/><line class="cls-1" x1="54.53" y1="6.13" x2="59.48" y2="6.13"/><line class="cls-1" x1="21.99" y1="8.75" x2="38.57" y2="8.75"/><rect class="cls-1" x="0.75" y="28.1" width="21.09" height="16" rx="2.75"/><line class="cls-1" x1="0.9" y1="33.48" x2="12.97" y2="33.48"/><line class="cls-1" x1="16.9" y1="33.48" x2="21.84" y2="33.48"/><rect class="cls-1" x="38.39" y="28.1" width="21.09" height="16" rx="2.75"/><line class="cls-1" x1="38.53" y1="33.48" x2="50.6" y2="33.48"/><line class="cls-1" x1="54.53" y1="33.48" x2="59.48" y2="33.48"/><line class="cls-1" x1="21.99" y1="36.1" x2="38.57" y2="36.1"/><line class="cls-1" x1="48.93" y1="17.57" x2="48.93" y2="27.47"/><path class="cls-1" d="M11.4,45.79V60.27s-.18,1.85,1,2.29H18"/><circle class="cls-1" cx="30.31" cy="62.5" r="8.02"/><circle class="cls-1" cx="30.31" cy="62.5" r="11.78"/><polyline class="cls-1" points="27.15 62.12 29.66 64.19 34.57 59.83"/><circle class="cls-2" cx="29.66" cy="64.19" r="0.98"/></g></g></svg>