<svg xmlns="http://www.w3.org/2000/svg" viewBox="0 0 66.04 79.44"><defs><style>.cls-1{fill:none;stroke:#231815;stroke-linecap:round;stroke-linejoin:round;stroke-width:1.5px;}</style></defs><g id="レイヤー_2" data-name="レイヤー 2"><g id="レイヤー_1-2" data-name="レイヤー 1"><circle class="cls-1" cx="19.53" cy="6.75" r="6"/><path class="cls-1" d="M16.48,12.53S4.15,21.37,3,22.35.66,23.77.77,25s0,12.65,0,12.65A2.83,2.83,0,0,0,3.93,40.9c3.6-.11,3.38-2,3.38-3.71s.22-10.26.22-10.26l4.8-3.6"/><path class="cls-1" d="M20.51,13,30.33,26.6s6.58.66,7.13,1.9c.2.46.76,1.05.25,3.56-.35,1.71-4.11,1.42-7.6,1a12.29,12.29,0,0,1-6.25-3.2"/><path class="cls-1" d="M24.44,19.08l-1.09,21.6s0,1.52.87,1.74a27.08,27.08,0,0,1,4.91,1.2c1.75.77,2.4,2.08,2.4,4.91v9.82s1.2,5.13-3,5.13S24.9,60.55,25,58a29.88,29.88,0,0,0-.76-6.87,5.91,5.91,0,0,0-3.71-3.49c-2.83-.87-8.18-1-11.45-4.36C7.23,41.41,8.62,27,8.62,27"/><path class="cls-1" d="M7.78,39.08,7.35,59s-1.46,4.7-2,6.88-1.53,7.31.43,8.18,3.33,1.09,4.64-.87,4-11.68,4-11.68a27.25,27.25,0,0,0,.11-3.38c0-2.73.33-11.23.33-11.23"/><path class="cls-1" d="M18,78.69H3a1.5,1.5,0,0,1,0-3H16.47V64.53A1.5,1.5,0,0,1,18,63H32.18V52.46a1.5,1.5,0,0,1,1.5-1.5H46.87v-9.7a1.5,1.5,0,0,1,1.5-1.5H63.79a1.5,1.5,0,1,1,0,3H49.87v9.7a1.5,1.5,0,0,1-1.5,1.5H35.18V64.53a1.5,1.5,0,0,1-1.5,1.5H19.47V77.19A1.5,1.5,0,0,1,18,78.69Z"/><polyline class="cls-1" points="34.59 27.37 34.59 6.31 49.31 6.09 45.71 11.77 49.31 17.44 34.59 18.09"/></g></g></svg>